#Comment line ignore any data following # character 
#Hierarchical Translation and Rotation (.htr) file 
[Header]	
#Header keywords are followed by a single value 
FileType HTR		#Single word string
DataType HTRS		#Translation followed by rotation and scale data
FileVersion 1		#integer
NumSegments 64		#integer
NumFrames 3		#integer
DataFrameRate 30		#integer, data frame rate in this file
EulerRotationOrder ZYX
CalibrationUnits mm
RotationUnits Degrees
GlobalAxisofGravity Y
BoneLengthAxis Y
ScaleFactor 1.00
[SegmentNames&Hierarchy]
#CHILD	PARENT
Pinger_Root GLOBAL
Pelvis Pinger_Root
L_Hip Pelvis
R_Hip Pelvis
Rear_Leg01 Pelvis
Spine1 Pelvis
L_Leg01 L_Hip
L_Leg02 L_Leg01
L_Leg03 L_Leg02
L_Foot L_Leg03
L_Toe1_01 L_Foot
L_Toe2_01 L_Foot
L_Toe3_01 L_Foot
planeAlignerLeft L_Foot
L_Toe1_02 L_Toe1_01
L_Toe1_03 L_Toe1_02
L_Toe2_02 L_Toe2_01
L_Toe2_03 L_Toe2_02
L_Toe3_02 L_Toe3_01
L_Toe3_03 L_Toe3_02
planeLockWeightLeft planeAlignerLeft
R_Leg01 R_Hip
R_Leg02 R_Leg01
R_Leg03 R_Leg02
R_Foot R_Leg03
planeAlignerRight R_Foot
R_Toe1_01 R_Foot
R_Toe2_01 R_Foot
R_Toe3_01 R_Foot
planeLockWeightRight planeAlignerRight
R_Toe1_02 R_Toe1_01
R_Toe1_03 R_Toe1_02
R_Toe2_02 R_Toe2_01
R_Toe2_03 R_Toe2_02
R_Toe3_02 R_Toe3_01
R_Toe3_03 R_Toe3_02
Rear_Leg02 Rear_Leg01
Rear_Leg03 Rear_Leg02
Rear_Leg04 Rear_Leg03
Rear_Foot Rear_Leg04
planeAlignerCenter Rear_Foot
Rear_Toe1_01 Rear_Foot
Rear_Toe2_01 Rear_Foot
Rear_Toe3_01 Rear_Foot
planeLockWeightCenter planeAlignerCenter
Rear_Toe1_02 Rear_Toe1_01
Rear_Toe1_03 Rear_Toe1_02
Rear_Toe2_02 Rear_Toe2_01
Rear_Toe2_03 Rear_Toe2_02
Rear_Toe3_02 Rear_Toe3_01
Rear_Toe3_03 Rear_Toe3_02
Back_Bone Spine1
Head Spine1
Motor_Bone Back_Bone
Ping_Mechanism Back_Bone
BN_LookIK Head
bottomMouth Head
L_Mouth01 Head
L_mouthFront Head
mouthGun Head
R_Mouth01 Head
R_mouthFront Head
TopMouth Head
weapon_bone Head
[BasePosition]
#SegmentName Tx, Ty, Tz, Rx, Ry, Rz, BoneLength
Pinger_Root 0.000000 0.000000 0.000000 -90.000000 0.000000 0.000000 10.000000 
Pelvis 0.000000 0.000000 0.000000 0.000000 0.000000 0.000000 10.000000 
L_Hip 0.000000 0.000000 0.000000 0.000000 0.000000 0.000000 10.000000 
R_Hip 0.000000 0.000000 0.000000 0.000000 0.000000 0.000000 10.000000 
Rear_Leg01 0.000000 0.000000 0.000000 0.000000 0.000000 0.000000 10.000000 
Spine1 0.000000 0.000000 0.000000 0.000000 0.000000 0.000000 10.000000 
L_Leg01 0.000000 0.000000 0.000000 0.000000 0.000000 0.000000 10.000000 
L_Leg02 0.000000 0.000000 0.000000 0.000000 0.000000 0.000000 10.000000 
L_Leg03 0.000000 0.000000 0.000000 0.000000 0.000000 0.000000 10.000000 
L_Foot 0.000000 0.000000 0.000000 0.000000 0.000000 0.000000 10.000000 
L_Toe1_01 0.000000 0.000000 0.000000 0.000000 0.000000 0.000000 10.000000 
L_Toe2_01 0.000000 0.000000 0.000000 0.000000 0.000000 0.000000 10.000000 
L_Toe3_01 0.000000 0.000000 0.000000 0.000000 0.000000 0.000000 10.000000 
planeAlignerLeft 0.000000 0.000000 0.000000 0.000000 0.000000 0.000000 10.000000 
L_Toe1_02 0.000000 0.000000 0.000000 0.000000 0.000000 0.000000 10.000000 
L_Toe1_03 0.000000 0.000000 0.000000 0.000000 0.000000 0.000000 10.000000 
L_Toe2_02 0.000000 0.000000 0.000000 0.000000 0.000000 0.000000 10.000000 
L_Toe2_03 0.000000 0.000000 0.000000 0.000000 0.000000 0.000000 10.000000 
L_Toe3_02 0.000000 0.000000 0.000000 0.000000 0.000000 0.000000 10.000000 
L_Toe3_03 0.000000 0.000000 0.000000 0.000000 0.000000 0.000000 10.000000 
planeLockWeightLeft 0.000000 0.000000 0.000000 0.000000 0.000000 0.000000 10.000000 
R_Leg01 0.000000 0.000000 0.000000 0.000000 0.000000 0.000000 10.000000 
R_Leg02 0.000000 0.000000 0.000000 0.000000 0.000000 0.000000 10.000000 
R_Leg03 0.000000 0.000000 0.000000 0.000000 0.000000 0.000000 10.000000 
R_Foot 0.000000 0.000000 0.000000 0.000000 0.000000 0.000000 10.000000 
planeAlignerRight 0.000000 0.000000 0.000000 0.000000 0.000000 0.000000 10.000000 
R_Toe1_01 0.000000 0.000000 0.000000 0.000000 0.000000 0.000000 10.000000 
R_Toe2_01 0.000000 0.000000 0.000000 0.000000 0.000000 0.000000 10.000000 
R_Toe3_01 0.000000 0.000000 0.000000 0.000000 0.000000 0.000000 10.000000 
planeLockWeightRight 0.000000 0.000000 0.000000 0.000000 0.000000 0.000000 10.000000 
R_Toe1_02 0.000000 0.000000 0.000000 0.000000 0.000000 0.000000 10.000000 
R_Toe1_03 0.000000 0.000000 0.000000 0.000000 0.000000 0.000000 10.000000 
R_Toe2_02 0.000000 0.000000 0.000000 0.000000 0.000000 0.000000 10.000000 
R_Toe2_03 0.000000 0.000000 0.000000 0.000000 0.000000 0.000000 10.000000 
R_Toe3_02 0.000000 0.000000 0.000000 0.000000 0.000000 0.000000 10.000000 
R_Toe3_03 0.000000 0.000000 0.000000 0.000000 0.000000 0.000000 10.000000 
Rear_Leg02 0.000000 0.000000 0.000000 0.000000 0.000000 0.000000 10.000000 
Rear_Leg03 0.000000 0.000000 0.000000 0.000000 0.000000 0.000000 10.000000 
Rear_Leg04 0.000000 0.000000 0.000000 0.000000 0.000000 0.000000 10.000000 
Rear_Foot 0.000000 0.000000 0.000000 0.000000 0.000000 0.000000 10.000000 
planeAlignerCenter 0.000000 0.000000 0.000000 0.000000 0.000000 0.000000 10.000000 
Rear_Toe1_01 0.000000 0.000000 0.000000 0.000000 0.000000 0.000000 10.000000 
Rear_Toe2_01 0.000000 0.000000 0.000000 0.000000 0.000000 0.000000 10.000000 
Rear_Toe3_01 0.000000 0.000000 0.000000 0.000000 0.000000 0.000000 10.000000 
planeLockWeightCenter 0.000000 0.000000 0.000000 0.000000 0.000000 0.000000 10.000000 
Rear_Toe1_02 0.000000 0.000000 0.000000 0.000000 0.000000 0.000000 10.000000 
Rear_Toe1_03 0.000000 0.000000 0.000000 0.000000 0.000000 0.000000 10.000000 
Rear_Toe2_02 0.000000 0.000000 0.000000 0.000000 0.000000 0.000000 10.000000 
Rear_Toe2_03 0.000000 0.000000 0.000000 0.000000 0.000000 0.000000 10.000000 
Rear_Toe3_02 0.000000 0.000000 0.000000 0.000000 0.000000 0.000000 10.000000 
Rear_Toe3_03 0.000000 0.000000 0.000000 0.000000 0.000000 0.000000 10.000000 
Back_Bone 0.000000 0.000000 0.000000 0.000000 0.000000 0.000000 10.000000 
Head 0.000000 0.000000 0.000000 0.000000 0.000000 0.000000 10.000000 
Motor_Bone 0.000000 0.000000 0.000000 0.000000 0.000000 0.000000 10.000000 
Ping_Mechanism 0.000000 0.000000 0.000000 0.000000 0.000000 0.000000 10.000000 
BN_LookIK 0.000000 0.000000 0.000000 0.000000 0.000000 0.000000 10.000000 
bottomMouth 0.000000 0.000000 0.000000 0.000000 0.000000 0.000000 10.000000 
L_Mouth01 0.000000 0.000000 0.000000 0.000000 0.000000 0.000000 10.000000 
L_mouthFront 0.000000 0.000000 0.000000 0.000000 0.000000 0.000000 10.000000 
mouthGun 0.000000 0.000000 0.000000 0.000000 0.000000 0.000000 10.000000 
R_Mouth01 0.000000 0.000000 0.000000 0.000000 0.000000 0.000000 10.000000 
R_mouthFront 0.000000 0.000000 0.000000 0.000000 0.000000 0.000000 10.000000 
TopMouth 0.000000 0.000000 0.000000 0.000000 0.000000 0.000000 10.000000 
weapon_bone 0.000000 0.000000 0.000000 0.000000 0.000000 0.000000 10.000000 
#Beginning of Data. Separated by tabs
#Fr	Tx	Ty	Tz	Rx	Ry	Rz	SF
[Pinger_Root]
35 4407.405762 0.000000 0.000000 -0.000075 -0.000000 -0.000020 4407.405762
36 4537.036133 0.000000 0.000000 -0.000075 -0.000000 -0.000020 4537.036133
37 4666.665527 0.000000 0.000000 -0.000075 -0.000000 -0.000020 4666.665527
[Pelvis]
35 277.415649 -425.691345 5259.342285 55.933949 -82.309662 -76.529137 5283.829590
36 287.859344 -460.200836 5274.767578 55.713291 -84.176781 -76.199501 5302.623535
37 300.477417 -486.247528 5283.957520 50.805000 -86.516762 -71.675865 5314.784180
[L_Hip]
35 5.766392 125.831482 872.656799 -178.250168 -81.786369 87.376007 881.701050
36 5.766392 125.831482 872.656799 -178.250168 -81.786369 87.376007 881.701050
37 5.766392 125.831482 872.656799 -178.250168 -81.786369 87.376007 881.701050
[R_Hip]
35 5.765438 125.836372 -872.654907 -1.748770 81.786041 87.376961 881.699829
36 5.765438 125.836372 -872.654907 -1.748770 81.786041 87.376961 881.699829
37 5.765438 125.836372 -872.654907 -1.748770 81.786041 87.376961 881.699829
[Rear_Leg01]
35 -192.298416 -925.602966 -0.001907 -156.822739 -26.774862 175.721436 945.367432
36 -192.298416 -925.602966 -0.001907 -156.790436 -29.000212 174.365936 945.367432
37 -192.298416 -925.602966 -0.001907 -157.395157 -31.272083 172.904602 945.367432
[Spine1]
35 290.604584 5.007505 0.000477 3.965248 -8.425402 38.994942 290.647736
36 290.604584 5.007505 0.000477 4.372978 -7.553662 37.584049 290.647736
37 290.604584 5.007505 0.000477 5.272433 -6.904579 35.535419 290.647736
[L_Leg01]
35 761.932007 -0.002384 -0.069261 109.839531 -40.630379 -85.378159 761.932068
36 761.932007 -0.002384 -0.069261 96.577179 -42.640667 -82.971153 761.932068
37 761.932007 -0.002384 -0.069261 88.095558 -41.865688 -83.403587 761.932068
[L_Leg02]
35 1441.140503 -0.000954 -0.000715 -0.927512 0.246696 -105.803062 1441.140503
36 1441.140503 -0.000954 -0.000715 -0.010553 -0.000381 -106.663567 1441.140503
37 1441.140503 -0.000954 -0.000715 0.780160 -0.095535 -104.194336 1441.140503
[L_Leg03]
35 1686.963989 -0.000715 -0.000954 0.009229 -0.001438 107.716309 1686.963989
36 1686.963989 -0.000715 -0.000954 -0.011402 0.002338 113.178047 1686.963989
37 1686.963989 -0.000715 -0.000954 -0.027430 0.010391 117.804253 1686.963989
[L_Foot]
35 3041.570068 -30.715107 11.297464 -35.903130 7.770797 11.356182 3041.746094
36 3041.570068 -30.715107 11.297464 -20.878292 8.325151 15.157015 3041.746094
37 3041.570068 -30.715107 11.297464 -7.933840 8.923476 20.667006 3041.746094
[L_Toe1_01]
35 -188.216690 -224.732346 -21.137953 88.624046 -1.605639 -139.972672 293.899567
36 -188.216690 -224.732346 -21.137953 88.634949 -1.631130 -139.930450 293.899567
37 -188.216690 -224.732346 -21.137953 88.645813 -1.656622 -139.888184 293.899567
[L_Toe2_01]
35 200.746536 -219.926590 148.838394 -73.162216 -3.797880 -76.699356 332.896027
36 200.746536 -219.926590 148.838394 -73.288231 -3.774775 -75.849724 332.896027
37 200.746536 -219.926590 148.838394 -73.413895 -3.749809 -75.000031 332.896027
[L_Toe3_01]
35 188.832520 -219.859131 -191.078659 -111.429726 4.518308 -77.798607 347.140900
36 188.832520 -219.859131 -191.078659 -111.269234 4.492932 -76.943672 347.140900
37 188.832520 -219.859131 -191.078659 -111.109123 4.465184 -76.088715 347.140900
[planeAlignerLeft]
35 -18.516148 -789.302551 3.443783 0.000000 -90.000000 -90.001900 789.527222
36 7.199205 -779.404968 1.122760 0.000000 -90.000000 -90.001900 779.439026
37 35.129787 -772.514587 -1.650522 0.000000 -90.000000 -90.001900 773.314697
[L_Toe1_02]
35 413.761139 0.000477 0.000000 0.001450 -18.080538 0.001450 413.761139
36 413.761139 0.000477 0.000000 0.001454 -17.622314 0.001454 413.761139
37 413.761139 0.000477 0.000000 0.001459 -17.164082 0.001459 413.761139
[L_Toe1_03]
35 464.317322 0.000358 -0.000089 -179.992188 83.108551 -179.988678 464.317322
36 464.317322 0.000358 -0.000089 -179.994003 81.492844 -179.990494 464.317322
37 464.317322 0.000358 -0.000089 -179.995239 79.876747 -179.991730 464.317322
[L_Toe2_02]
35 342.235809 -0.000477 0.000238 0.001180 -77.998970 0.001180 342.235809
36 342.235809 -0.000477 0.000238 0.001180 -77.919495 0.001180 342.235809
37 342.235809 -0.000477 0.000238 0.001180 -77.840073 0.001180 342.235809
[L_Toe2_03]
35 420.210846 -0.000715 0.000000 -179.997086 75.899437 -179.993561 420.210846
36 420.210846 -0.000715 0.000000 -179.997025 76.071877 -179.993500 420.210846
37 420.210846 -0.000715 0.000000 -179.996887 76.461220 -179.993362 420.210846
[L_Toe3_02]
35 329.270111 0.000954 0.000000 0.001177 -81.664688 0.001177 329.270111
36 329.270111 0.000954 0.000000 0.001177 -81.591087 0.001177 329.270111
37 329.270111 0.000954 0.000000 0.001177 -81.517487 0.001177 329.270111
[L_Toe3_03]
35 439.137451 -0.001907 0.000954 -179.997711 73.695557 -179.994186 439.137451
36 439.137451 -0.001907 0.000954 -179.997681 73.822227 -179.994141 439.137451
37 439.137451 -0.001907 0.000954 -179.997589 74.169998 -179.994064 439.137451
[planeLockWeightLeft]
35 0.000210 0.098114 0.076027 -0.011826 -0.004376 0.005620 0.124123
36 0.000234 0.098152 0.076036 -0.011826 -0.004376 0.005620 0.124159
37 0.000257 0.098190 0.076046 -0.011826 -0.004376 0.005620 0.124195
[R_Leg01]
35 761.455627 -0.001907 -0.000358 129.486954 17.004602 64.994759 761.455688
36 761.455627 -0.001907 -0.000358 132.034927 15.886030 67.594803 761.455688
37 761.455627 -0.001907 -0.000358 133.961075 13.887548 70.070236 761.455688
[R_Leg02]
35 1441.140625 0.000000 -0.000238 0.213852 0.030440 -78.722008 1441.140625
36 1441.140625 0.000000 -0.000238 0.213791 0.030860 -78.947105 1441.140625
37 1441.140625 0.000000 -0.000238 0.213274 0.028784 -79.700851 1441.140625
[R_Leg03]
35 1686.963989 0.000954 0.001431 -0.068606 0.013629 91.348289 1686.963989
36 1686.963989 0.000954 0.001431 -0.067392 0.014941 91.620529 1686.963989
37 1686.963989 0.000954 0.001431 -0.067303 0.015337 92.294540 1686.963989
[R_Foot]
35 3041.560059 -30.531288 -11.204481 22.662020 -10.524213 65.067329 3041.734131
36 3041.560059 -30.531288 -11.204481 21.476475 -9.681953 66.340088 3041.734131
37 3041.560059 -30.531288 -11.204481 20.312746 -8.813977 67.592155 3041.734131
[planeAlignerRight]
35 38.550934 -602.301208 20.548422 0.000000 -89.960434 -90.005180 603.883362
36 37.456062 -620.340027 18.453081 0.000000 -89.960434 -90.005180 621.743713
37 34.484886 -643.347534 16.010456 0.000000 -89.960434 -90.005180 644.470032
[R_Toe1_01]
35 -188.383347 -224.864899 21.052242 90.684746 1.037477 -167.647675 294.101532
36 -188.383347 -224.864899 21.052242 90.696762 1.145298 -166.235199 294.101532
37 -188.383347 -224.864899 21.052242 90.722015 1.259346 -164.193085 294.101532
[R_Toe2_01]
35 200.637817 -220.002121 -148.787384 -101.461952 10.985050 -43.630909 332.857574
36 200.637817 -220.002121 -148.787384 -101.735779 10.807834 -44.878582 332.857574
37 200.637817 -220.002121 -148.787384 -102.183533 10.632815 -46.820011 332.857574
[R_Toe3_01]
35 188.606735 -220.092957 191.126343 -74.157616 -16.037268 -46.201572 347.192566
36 188.606735 -220.092957 191.126343 -73.895897 -15.531753 -47.355957 347.192566
37 188.606735 -220.092957 191.126343 -73.433670 -14.964891 -49.194077 347.192566
[planeLockWeightRight]
35 999.999329 -0.000232 0.076081 -0.011823 -0.004379 -0.000027 999.999329
36 999.999329 -0.000189 0.076090 -0.011823 -0.004379 -0.000027 999.999329
37 999.999329 -0.000147 0.076100 -0.011823 -0.004379 -0.000027 999.999329
[R_Toe1_02]
35 413.762085 0.000477 -0.000119 0.001428 -20.493525 0.001428 413.762085
36 413.762085 0.000477 -0.000119 0.001424 -21.005114 0.001424 413.762085
37 413.762085 0.000477 -0.000119 0.001420 -21.516720 0.001420 413.762085
[R_Toe1_03]
35 464.317810 0.000000 0.001088 -0.055134 88.765999 -0.051637 464.317810
36 464.317810 0.000000 0.001088 -0.027188 87.410629 -0.023690 464.317810
37 464.317810 0.000000 0.001088 -0.015995 85.375511 -0.012496 464.317810
[R_Toe2_02]
35 342.234741 -0.000954 0.000238 -0.002340 -76.375671 -0.002340 342.234741
36 342.234741 -0.000954 0.000238 -0.002341 -75.852036 -0.002341 342.234741
37 342.234741 -0.000954 0.000238 -0.002342 -75.328423 -0.002342 342.234741
[R_Toe2_03]
35 420.210846 0.000715 -0.000268 -179.989960 82.061829 -179.993454 420.210846
36 420.210846 0.000715 -0.000268 -179.987717 83.749001 -179.991211 420.210846
37 420.210846 0.000715 -0.000268 -179.983826 85.436058 -179.987320 420.210846
[R_Toe3_02]
35 329.270355 -0.000477 -0.000954 0.001178 -79.717957 0.001178 329.270355
36 329.270355 -0.000477 -0.000954 0.001179 -79.242928 0.001179 329.270355
37 329.270355 -0.000477 -0.000954 0.001179 -78.767807 0.001179 329.270355
[R_Toe3_03]
35 439.137939 0.000238 0.001431 -179.994003 81.499199 -179.990494 439.137939
36 439.137939 0.000238 0.001431 -179.992538 82.848129 -179.989044 439.137939
37 439.137939 0.000238 0.001431 -179.990402 84.196907 -179.986893 439.137939
[Rear_Leg02]
35 1162.777710 -0.029802 0.005960 0.656106 9.003268 -92.852966 1162.777710
36 1162.777710 -0.029802 0.005960 1.402573 7.951422 -85.913559 1162.777710
37 1162.777710 -0.029802 0.005960 2.015770 6.813925 -78.980125 1162.777710
[Rear_Leg03]
35 607.192505 -0.013351 -0.073195 0.006578 -0.001781 58.512047 607.192505
36 607.192505 -0.013351 -0.073195 0.006620 -0.001615 55.633408 607.192505
37 607.192505 -0.013351 -0.073195 0.006655 -0.001448 52.756603 607.192505
[Rear_Leg04]
35 995.874512 -0.020504 -0.011921 -0.035971 -0.016629 47.683819 995.874573
36 995.874512 -0.020504 -0.011921 -0.035046 -0.015869 42.773182 995.874573
37 995.874512 -0.020504 -0.011921 -0.034193 -0.015037 37.889492 995.874573
[Rear_Foot]
35 3096.176270 -0.067472 -0.041425 163.332138 57.719936 -25.396580 3096.176270
36 3096.176270 -0.067472 -0.041425 165.173874 56.818161 -22.112095 3096.176270
37 3096.176270 -0.067472 -0.041425 167.333527 56.151295 -18.357300 3096.176270
[planeAlignerCenter]
35 0.528870 79.155724 -718.691772 0.000009 0.000003 -179.999985 723.037842
36 0.523682 83.148010 -710.505859 0.000009 0.000003 -179.999985 715.354736
37 0.518341 87.496841 -708.143127 0.000009 0.000003 -179.999985 713.528320
[Rear_Toe1_01]
35 0.653352 83.966492 -371.173737 0.062566 22.947491 90.032730 380.553192
36 0.653352 83.966492 -371.173737 0.066019 22.526411 90.032982 380.553192
37 0.653352 83.966492 -371.173737 0.059492 22.540670 90.035988 380.553192
[Rear_Toe2_01]
35 178.200760 -294.826019 -362.060547 1.008607 47.639061 -69.781059 499.765686
36 178.200760 -294.826019 -362.060547 1.062412 47.317711 -69.662224 499.765686
37 178.200760 -294.826019 -362.060547 1.114917 46.996300 -69.544533 499.765686
[Rear_Toe3_01]
35 -153.359680 -308.780914 -362.060852 -1.264943 47.642345 -112.718147 499.952881
36 -153.359680 -308.780914 -362.060852 -1.325596 47.322906 -112.850471 499.952881
37 -153.359680 -308.780914 -362.060852 -1.384806 47.003361 -112.981483 499.952881
[planeLockWeightCenter]
35 999.999939 0.000194 0.076449 -0.011814 -0.004373 -0.000015 999.999939
36 999.999939 0.000190 0.076462 -0.011814 -0.004373 -0.000015 999.999939
37 999.999939 0.000186 0.076475 -0.011814 -0.004373 -0.000015 999.999939
[Rear_Toe1_02]
35 379.707825 0.194073 0.000477 -0.000767 -33.624729 0.000838 379.707855
36 379.707825 0.194073 0.000477 -0.000767 -33.624729 0.000838 379.707855
37 379.707825 0.194073 0.000477 -0.000767 -33.624729 0.000838 379.707855
[Rear_Toe1_03]
35 500.129700 0.165701 0.000119 0.007079 70.914696 0.007079 500.129761
36 500.129700 0.165701 0.000119 0.007032 70.784134 0.007032 500.129761
37 500.129700 0.165701 0.000119 0.006790 70.094009 0.006790 500.129761
[Rear_Toe2_02]
35 340.494507 0.000238 -0.000954 0.001175 -84.916847 0.001175 340.494507
36 340.494507 0.000238 -0.000954 0.001175 -85.478661 0.001175 340.494507
37 340.494507 0.000238 -0.000954 0.001174 -85.694656 0.001174 340.494507
[Rear_Toe2_03]
35 433.103577 0.000000 0.000238 179.984879 81.101616 179.984879 433.103546
36 433.103577 0.000000 0.000238 179.986359 80.132294 179.986359 433.103546
37 433.103577 0.000000 0.000238 179.987579 79.162880 179.987579 433.103546
[Rear_Toe3_02]
35 340.494141 -0.000358 -0.000477 0.001175 -84.811859 0.001175 340.494171
36 340.494141 -0.000358 -0.000477 0.001175 -85.371025 0.001175 340.494171
37 340.494141 -0.000358 -0.000477 0.001174 -85.586647 0.001174 340.494171
[Rear_Toe3_03]
35 433.103577 0.001431 -0.000238 -179.994125 81.368759 -179.990616 433.103546
36 433.103577 0.001431 -0.000238 -179.994888 80.407158 -179.991379 433.103546
37 433.103577 0.001431 -0.000238 -179.995514 79.445473 -179.992004 433.103546
[Back_Bone]
35 1312.175781 -701.934692 0.000954 2.721387 2.694739 -83.412727 1488.125488
36 1312.175781 -701.934692 0.000954 2.636139 3.033846 -82.984337 1488.125488
37 1312.175781 -701.934692 0.000954 2.377839 3.059946 -82.530098 1488.125488
[Head]
35 1406.159424 809.709290 0.001431 12.316025 -6.979808 -1.175922 1622.625488
36 1406.159424 809.709290 0.001431 12.266100 -6.676933 -1.229790 1622.625488
37 1406.159424 809.709290 0.001431 12.215915 -6.374102 -1.283889 1622.625488
[Motor_Bone]
35 1158.364380 -417.834747 0.000477 2.853682 -2.893695 -108.875999 1231.419434
36 1158.364380 -417.834747 0.000477 5.387601 -1.836383 -107.820099 1231.419434
37 1158.364380 -417.834747 0.000477 -0.064436 0.133398 -105.853737 1231.419434
[Ping_Mechanism]
35 1190.236450 -409.998291 12.570432 0.000103 -0.000053 82.120995 1258.935913
36 1195.739746 -415.434540 9.274927 0.000103 -0.000053 82.120995 1265.885254
37 1204.161499 -423.353210 6.094079 0.000103 -0.000053 82.120995 1276.428711
[BN_LookIK]
35 193.241119 1380.371704 -0.002861 0.000000 89.965736 -31.038179 1393.832153
36 193.241119 1380.371704 -0.002861 0.000000 89.965736 -31.038179 1393.832153
37 193.241119 1380.371704 -0.002861 0.000000 89.965736 -31.038179 1393.832153
[bottomMouth]
35 -435.092926 615.759399 -0.000954 -0.000022 0.000016 73.527184 753.966492
36 -435.092926 615.759399 -0.000954 -0.000022 0.000016 73.527184 753.966492
37 -435.092926 615.759399 -0.000954 -0.000022 0.000016 73.527184 753.966492
[L_Mouth01]
35 554.440979 7.658243 838.222046 150.204178 23.759130 109.605339 1005.027161
36 554.440979 7.658243 838.222046 150.204178 23.759130 109.605339 1005.027161
37 554.440979 7.658243 838.222046 150.204178 23.759130 109.605339 1005.027161
[L_mouthFront]
35 551.629089 934.514771 339.150421 0.000081 2.804060 79.119301 1136.941284
36 551.629089 934.514771 339.150421 0.000081 2.804060 79.119301 1136.941284
37 551.629089 934.514771 339.150421 0.000081 2.804060 79.119301 1136.941284
[mouthGun]
35 55.332661 1627.420898 0.000000 0.000023 0.000009 -11.038128 1628.361328
36 55.332661 1627.420898 0.000000 0.000023 0.000009 -11.038128 1628.361328
37 55.332661 1627.420898 0.000000 0.000023 0.000009 -11.038128 1628.361328
[R_Mouth01]
35 554.442383 7.659197 -838.223938 29.795891 -23.759109 109.605331 1005.029541
36 554.442383 7.659197 -838.223938 29.795891 -23.759109 109.605331 1005.029541
37 554.442383 7.659197 -838.223938 29.795891 -23.759109 109.605331 1005.029541
[R_mouthFront]
35 551.629089 934.514282 -339.151367 0.000029 -2.803930 79.119133 1136.941162
36 551.629089 934.514282 -339.151367 0.000029 -2.803930 79.119133 1136.941162
37 551.629089 934.514282 -339.151367 0.000029 -2.803930 79.119133 1136.941162
[TopMouth]
35 461.269867 -56.106091 -0.008583 -0.000059 -0.000268 92.025169 464.669525
36 461.269867 -56.106091 -0.008583 -0.000059 -0.000268 92.025169 464.669525
37 461.269867 -56.106091 -0.008583 -0.000059 -0.000268 92.025169 464.669525
[weapon_bone]
35 -987.239868 1448.372803 0.001431 0.000000 89.965736 -31.038221 1752.833740
36 -987.239868 1448.372803 0.001431 0.000000 89.965736 -31.038221 1752.833740
37 -987.239868 1448.372803 0.001431 0.000000 89.965736 -31.038221 1752.833740
